Coordinates
version=1
nRows=18
nColumns=63
inDegrees=yes

Units are S.I. units (second, meters, Newtons, ...)
If the header above contains a line with 'inDegrees', this indicates whether rotational values are in degrees (yes) or radians (no).

endheader
time	pelvis_tilt	pelvis_list	pelvis_rotation	pelvis_tx	pelvis_ty	pelvis_tz	hip_flexion_r	hip_adduction_r	hip_rotation_r	knee_angle_r	knee_angle_r_beta	ankle_angle_r	subtalar_angle_r	mtp_angle_r	hip_flexion_l	hip_adduction_l	hip_rotation_l	knee_angle_l	knee_angle_l_beta	ankle_angle_l	subtalar_angle_l	mtp_angle_l	L5_S1_Flex_Ext	L5_S1_Lat_Bending	L5_S1_axial_rotation	L4_L5_Flex_Ext	L4_L5_Lat_Bending	L4_L5_axial_rotation	L3_L4_Flex_Ext	L3_L4_Lat_Bending	L3_L4_axial_rotation	L2_L3_Flex_Ext	L2_L3_Lat_Bending	L2_L3_axial_rotation	L1_L2_Flex_Ext	L1_L2_Lat_Bending	L1_L2_axial_rotation	L1_T12_Flex_Ext	L1_T12_Lat_Bending	L1_T12_axial_rotation	Abs_r3	Abs_r2	Abs_r1	Abs_t1	Abs_t2	neck_flexion	neck_bending	neck_rotation	arm_flex_r	arm_add_r	arm_rot_r	elbow_flex_r	pro_sup_r	wrist_flex_r	wrist_dev_r	arm_flex_l	arm_add_l	arm_rot_l	elbow_flex_l	pro_sup_l	wrist_flex_l	wrist_dev_l
2.150000	2.384610	-0.725372	100.318599	0.128375	0.570370	0.871510	6.116594	-2.620302	-17.287650	6.545253	0.114236	26.777343	14.888510	0.000000	9.758887	3.398754	15.412539	6.657193	0.116190	21.802314	-11.236975	0.000000	0.330824	0.024588	-1.218148	0.614372	0.032703	-1.294282	0.543510	0.059784	-1.294282	0.378098	0.059784	-1.065880	0.307203	0.050141	-0.989745	0.189033	0.038088	-0.913611	2.363039	0.278149	-6.774974	0.000000	0.000000	27.245033	4.164385	8.700899	15.596559	-9.698457	135.999852	10.294774	11.660334	2.182998	-7.503126	1.484933	-13.951361	32.366664	41.176393	86.442791	-7.086158	-0.559608
2.166667	2.369259	-0.778690	100.382208	0.128415	0.570432	0.871536	6.149203	-2.641255	-17.405126	6.499495	0.113438	26.763503	14.895472	0.000000	9.822822	3.413659	15.344480	6.669044	0.116397	21.799768	-11.028551	0.000000	0.338358	0.016915	-1.200359	0.628364	0.022497	-1.275382	0.555888	0.041128	-1.275382	0.386709	0.041128	-1.050314	0.314199	0.034494	-0.975292	0.193338	0.026202	-0.900270	2.416854	0.191350	-6.676039	0.000000	0.000000	27.394662	4.250699	8.420389	15.598263	-9.367458	139.804013	9.440661	8.579825	2.898158	-7.893427	1.578466	-14.005983	32.589738	41.176955	86.446705	-7.109292	-0.552179
2.183333	2.374272	-0.816210	100.418176	0.128442	0.570464	0.871557	6.172975	-2.638465	-17.487698	6.445934	0.112503	26.773159	14.917888	0.000000	9.867793	3.412185	15.427161	6.675273	0.116505	21.757309	-11.076068	0.000000	0.343463	0.013222	-1.178393	0.637844	0.017585	-1.252043	0.564275	0.032148	-1.252043	0.392543	0.032148	-1.031094	0.318939	0.026962	-0.957445	0.196255	0.020481	-0.883795	2.453319	0.149571	-6.553870	0.000000	0.000000	27.481999	4.278730	8.169132	15.475926	-9.218060	141.369264	8.994481	7.493241	3.252118	-8.060851	1.681251	-14.040744	32.817781	41.166152	86.446945	-7.140935	-0.571416
2.200000	2.391257	-0.837829	100.384057	0.128536	0.570471	0.871575	6.197075	-2.612984	-17.424437	6.395785	0.111627	26.792469	14.865727	0.000000	9.889881	3.380607	15.369500	6.668681	0.116390	21.772105	-10.996998	0.000000	0.345720	0.012804	-1.147368	0.642036	0.017029	-1.219079	0.567983	0.031131	-1.219079	0.395123	0.031131	-1.003947	0.321035	0.026110	-0.932237	0.197544	0.019833	-0.860526	2.469441	0.144839	-6.381318	0.000000	0.000000	27.502451	4.253522	7.975198	15.235720	-9.237258	140.717652	8.940135	8.345169	3.254185	-8.013842	1.786560	-14.060187	33.050198	41.143475	86.439107	-7.227450	-0.623895
2.216667	2.427820	-0.851905	100.360171	0.128569	0.570421	0.871630	6.222107	-2.575725	-17.434777	6.357509	0.110959	26.837651	14.914191	0.000000	9.914990	3.341987	15.471291	6.673043	0.116467	21.758302	-11.129654	0.000000	0.346269	0.016319	-1.128682	0.643055	0.021704	-1.199224	0.568885	0.039678	-1.199224	0.395750	0.039678	-0.987597	0.321545	0.033277	-0.917054	0.197858	0.025278	-0.846511	2.473361	0.184603	-6.277389	0.000000	0.000000	27.456225	4.185386	7.860988	14.903957	-9.411570	137.955014	9.258828	11.041235	2.934667	-7.745531	1.839275	-14.042150	33.108777	41.134432	86.488416	-7.261434	-0.653178
2.233333	2.472546	-0.842164	100.290733	0.128641	0.570352	0.871726	6.235081	-2.518108	-17.294860	6.321698	0.110334	26.876484	14.846337	0.000000	9.930224	3.280894	15.403989	6.699352	0.116926	21.825397	-11.081210	0.000000	0.341450	0.022710	-1.109096	0.634107	0.030204	-1.178415	0.560969	0.055217	-1.178415	0.390243	0.055217	-0.970459	0.317071	0.046310	-0.901141	0.195105	0.035178	-0.831822	2.438945	0.256900	-6.168461	0.000000	0.000000	27.361714	4.063166	7.814217	14.485347	-9.738575	133.130364	9.930127	15.524114	2.298344	-7.258189	1.897386	-14.020136	33.186722	41.114384	86.467423	-7.328347	-0.706529
2.250000	2.532477	-0.819285	100.207408	0.128688	0.570239	0.871858	6.244767	-2.445227	-17.131258	6.297431	0.109911	26.921984	14.786293	0.000000	9.943765	3.206220	15.346901	6.739614	0.117628	21.910247	-11.065907	0.000000	0.333364	0.032601	-1.097440	0.619090	0.043360	-1.166030	0.547683	0.079267	-1.166030	0.381001	0.079267	-0.960260	0.309562	0.066480	-0.891670	0.190484	0.050499	-0.823080	2.381184	0.368792	-6.103631	0.000000	0.000000	27.218120	3.903112	7.846918	13.971698	-10.225002	126.181652	10.964868	21.765430	1.404235	-6.487278	1.918059	-13.968742	33.135736	41.102043	86.483524	-7.344265	-0.717483
2.266667	2.608299	-0.784332	100.139851	0.128666	0.570088	0.872001	6.242657	-2.360913	-17.016717	6.282896	0.109657	26.969466	14.777491	0.000000	9.957556	3.120661	15.291746	6.795541	0.118605	22.027004	-11.029311	0.000000	0.323005	0.045675	-1.095919	0.599853	0.060748	-1.164414	0.530665	0.111055	-1.164414	0.369163	0.111055	-0.958929	0.299943	0.093141	-0.890434	0.184565	0.070751	-0.821939	2.307193	0.516687	-6.095172	0.000000	0.000000	27.042973	3.706572	7.926770	13.365304	-10.879277	117.205888	12.351477	29.589117	0.283652	-5.430475	1.921984	-13.894183	33.033136	41.079560	86.501207	-7.346709	-0.716844
2.283333	2.701484	-0.735518	100.076102	0.128581	0.569915	0.872125	6.226048	-2.262556	-16.949137	6.281010	0.109624	27.004023	14.815709	0.000000	9.956336	3.023338	15.326094	6.847740	0.119516	22.129793	-11.107619	0.000000	0.311057	0.062414	-1.098593	0.577664	0.083011	-1.167255	0.511035	0.151754	-1.167255	0.355507	0.151754	-0.961269	0.288847	0.127275	-0.892607	0.177738	0.096680	-0.823945	2.221848	0.706042	-6.110044	0.000000	0.000000	26.849830	3.483333	8.070419	12.698155	-11.711451	106.531832	14.067203	38.578033	-1.066644	-4.169505	1.936611	-13.799567	32.959606	41.030674	86.499129	-7.350234	-0.715734
2.300000	2.767113	-0.688951	100.049181	0.128515	0.569760	0.872184	6.192812	-2.192738	-16.935403	6.285278	0.109699	27.020427	14.868439	0.000000	9.945860	2.957330	15.392850	6.890778	0.120267	22.212231	-11.209896	0.000000	0.300405	0.074424	-1.111501	0.557882	0.098984	-1.180970	0.493535	0.180955	-1.180970	0.343333	0.180955	-0.972563	0.278956	0.151765	-0.903094	0.171651	0.115283	-0.833626	2.145763	0.841900	-6.181834	0.000000	0.000000	26.662180	3.275700	8.174913	12.151685	-12.227445	98.910358	15.223242	44.865752	-2.020144	-3.290273	1.925874	-13.724260	32.805891	40.991302	86.540708	-7.255457	-0.678494
2.316667	2.835471	-0.633628	100.027484	0.128409	0.569618	0.872172	6.142438	-2.121380	-16.952698	6.301015	0.109973	27.010442	14.927211	0.000000	9.916611	2.885855	15.404587	6.921115	0.120796	22.312780	-11.226939	0.000000	0.290826	0.087814	-1.126127	0.540092	0.116793	-1.196510	0.477798	0.213511	-1.196510	0.332385	0.213511	-0.985361	0.270061	0.179070	-0.914979	0.166178	0.136024	-0.844596	2.077339	0.993370	-6.263183	0.000000	0.000000	26.491914	3.084224	8.338892	11.619571	-12.775969	91.133560	16.510824	50.908703	-2.966259	-2.414479	1.934971	-13.636766	32.714386	40.907465	86.589479	-7.164796	-0.665573
2.333333	2.910878	-0.564867	100.015462	0.128230	0.569508	0.872084	6.064750	-2.045142	-17.026460	6.317418	0.110260	26.969007	15.024648	0.000000	9.855114	2.811151	15.477339	6.924464	0.120855	22.383217	-11.324012	0.000000	0.282604	0.103995	-1.145333	0.524824	0.138313	-1.216917	0.464290	0.252853	-1.216917	0.322988	0.252853	-1.002167	0.262426	0.212066	-0.930583	0.161480	0.161088	-0.859000	2.018613	1.176408	-6.370000	0.000000	0.000000	26.347261	2.954524	8.653759	11.201962	-13.367514	83.768051	17.916459	56.144931	-3.931841	-1.726547	1.966202	-13.532583	32.738377	40.776258	86.574719	-7.140370	-0.639440
2.350000	2.992684	-0.482113	99.993320	0.128086	0.569447	0.871894	5.967060	-1.951897	-17.065286	6.341220	0.110675	26.894220	15.047628	0.000000	9.762360	2.714653	15.438366	6.905091	0.120517	22.492518	-11.259718	0.000000	0.276694	0.121909	-1.167464	0.513848	0.162139	-1.240431	0.454580	0.296409	-1.240431	0.316234	0.296409	-1.021531	0.256938	0.248596	-0.948565	0.158103	0.188837	-0.875598	1.976397	1.379056	-6.493086	0.000000	0.000000	26.234668	2.845060	9.073214	10.907072	-13.958601	76.860780	19.383486	60.553035	-4.857708	-1.187630	1.999443	-13.445503	32.903654	40.614742	86.467183	-7.220859	-0.665442
2.366667	3.073544	-0.398553	99.994748	0.127857	0.569426	0.871622	5.853648	-1.868485	-17.246722	6.365433	0.111098	26.812649	15.205604	0.000000	9.654265	2.630703	15.491247	6.872158	0.119942	22.558473	-11.312742	0.000000	0.274783	0.140741	-1.198385	0.510299	0.187185	-1.273284	0.451440	0.342197	-1.273284	0.314049	0.342197	-1.048587	0.255163	0.286998	-0.973688	0.157011	0.218007	-0.898788	1.962744	1.592087	-6.665056	0.000000	0.000000	26.170340	2.824644	9.625333	10.731790	-14.522601	70.764044	20.833049	63.983776	-5.610927	-0.813721	1.975901	-13.311165	32.922854	40.409872	86.370488	-7.176047	-0.664038
2.383333	3.151396	-0.312150	99.997480	0.127612	0.569478	0.871247	5.724526	-1.783005	-17.403462	6.377297	0.111305	26.711767	15.329818	0.000000	9.516979	2.548594	15.575158	6.805969	0.118787	22.583901	-11.416359	0.000000	0.276017	0.159279	-1.230492	0.512591	0.211841	-1.307398	0.453468	0.387271	-1.307398	0.315460	0.387271	-1.076681	0.256309	0.324802	-0.999775	0.157716	0.246723	-0.922869	1.971560	1.801798	-6.843628	0.000000	0.000000	26.155637	2.893008	10.265935	10.671557	-14.950287	66.606678	21.990395	65.790322	-6.091190	-0.709044	1.933675	-13.169067	33.043248	40.168325	86.119993	-7.335451	-0.694905
2.400000	3.229191	-0.225301	100.020032	0.127313	0.569610	0.870796	5.580053	-1.695235	-17.557044	6.365475	0.111099	26.609946	15.445268	0.000000	9.358334	2.467963	15.678897	6.711415	0.117136	22.575883	-11.527022	0.000000	0.279673	0.177611	-1.269385	0.519380	0.236223	-1.348722	0.459474	0.431844	-1.348722	0.319638	0.431844	-1.110712	0.259704	0.362185	-1.031375	0.159805	0.275120	-0.952039	1.997674	2.009173	-7.059940	0.000000	0.000000	26.183634	3.062265	11.012155	10.755339	-15.234320	64.422919	22.823931	66.097332	-6.289278	-0.854154	1.819742	-12.989009	32.994019	39.892283	85.816285	-7.515649	-0.767538
2.416667	3.302207	-0.142118	100.081840	0.126951	0.569842	0.870272	5.419365	-1.608659	-17.700850	6.318474	0.110278	26.516712	15.528612	0.000000	9.189190	2.397501	15.809564	6.600427	0.115199	22.534303	-11.633380	0.000000	0.285598	0.194082	-1.314525	0.530385	0.258129	-1.396683	0.469209	0.471891	-1.396683	0.326410	0.471891	-1.150209	0.265207	0.395772	-1.068051	0.163191	0.300633	-0.985894	2.040000	2.195492	-7.310992	0.000000	0.000000	26.248526	3.313761	11.790189	10.977677	-15.333655	64.606364	23.229493	64.668376	-6.196170	-1.309696	1.656033	-12.801318	32.862213	39.579380	85.471479	-7.921786	-0.888115
2.433333	3.354398	-0.063788	100.167244	0.126569	0.570186	0.869699	5.245103	-1.536573	-17.786356	6.234543	0.108813	26.427283	15.544849	0.000000	9.003770	2.347849	15.940792	6.461876	0.112781	22.455317	-11.723813	0.000000	0.292925	0.206211	-1.360069	0.543992	0.274260	-1.445073	0.481247	0.501381	-1.445073	0.334785	0.501381	-1.190060	0.272011	0.420505	-1.105056	0.167378	0.319420	-1.020051	2.092337	2.332696	-7.564294	0.000000	0.000000	26.336033	3.619057	12.521843	11.366944	-15.210340	67.607687	23.124430	61.106976	-5.862729	-2.187350	1.505536	-12.672925	32.771681	39.254107	85.173552	-8.525629	-0.883378
